<?xml version="1.0" standalone="no"?>
<!DOCTYPE svg PUBLIC "-//W3C//DTD SVG 20010904//EN"
 "http://www.w3.org/TR/2001/REC-SVG-20010904/DTD/svg10.dtd">
<svg version="1.0" xmlns="http://www.w3.org/2000/svg"
 width="325.000000pt" height="325.000000pt" viewBox="0 0 325.000000 325.000000"
 preserveAspectRatio="xMidYMid meet">
<metadata>
Created by potrace 1.14, written by Peter Selinger 2001-2017
</metadata>
<g transform="translate(0.000000,325.000000) scale(0.100000,-0.100000)"
fill="#000000" stroke="none">
<path d="M820 3033 c-191 -35 -368 -137 -520 -300 -272 -293 -312 -648 -114
-1022 25 -48 69 -119 97 -157 28 -38 339 -356 691 -706 l641 -637 628 627
c346 345 650 654 676 687 63 79 137 203 173 290 91 218 93 477 6 667 -112 243
-358 459 -604 530 -106 30 -293 32 -404 4 -143 -37 -286 -106 -408 -198 -44
-33 -70 -47 -78 -42 -7 5 -46 32 -86 60 -187 132 -402 206 -590 203 -46 -1
-94 -4 -108 -6z m307 -104 c148 -37 288 -110 425 -222 32 -26 60 -47 63 -47 3
0 22 15 42 34 48 43 173 126 240 160 241 121 489 133 693 32 231 -114 413
-329 471 -554 20 -78 26 -255 10 -280 -6 -10 -35 4 -122 58 -82 53 -124 73
-151 74 -21 1 -39 4 -41 7 -2 2 -64 69 -138 149 -74 80 -172 187 -218 238
l-85 93 -121 -121 -120 -120 -50 0 c-50 0 -51 -1 -305 -201 -140 -111 -261
-203 -267 -206 -7 -3 -61 22 -121 55 -81 46 -126 64 -178 73 l-69 13 -109 114
-109 114 -152 -152 -152 -152 -43 27 c-23 14 -55 42 -72 61 -17 19 -33 34 -37
34 -4 0 -61 -40 -127 -90 -65 -49 -121 -90 -125 -90 -12 0 -18 145 -10 215 20
158 92 303 214 432 157 166 317 253 507 276 57 7 180 -4 257 -24z m673 -1224
l5 -170 166 -3 167 -2 5 -28 c2 -15 3 -38 2 -52 -2 -14 -4 -85 -4 -157 l-1
-133 -167 -2 -168 -3 -3 -173 -2 -172 -188 2 -187 3 -3 173 -2 172 -170 0
-170 0 0 185 0 185 170 0 170 0 0 168 c0 93 3 172 7 176 4 3 88 5 187 4 l181
-3 5 -170z"/>
</g>
</svg>
